<?xml version="1.0" encoding="utf-8"?>
<!-- Generator: Adobe Illustrator 27.0.0, SVG Export Plug-In . SVG Version: 6.00 Build 0)  -->
<svg version="1.1" id="图层_1" xmlns="http://www.w3.org/2000/svg" xmlns:xlink="http://www.w3.org/1999/xlink" x="0px" y="0px"
	 viewBox="0 0 1024 1024" style="enable-background:new 0 0 1024 1024;" xml:space="preserve">
<style type="text/css">
	.st0{fill:url(#SVGID_1_);}
	.st1{fill:url(#SVGID_00000087389377948470236230000004703773054399846321_);}
	.st2{fill:url(#SVGID_00000167365753193901775850000017768118222005772731_);}
</style>
<linearGradient id="SVGID_1_" gradientUnits="userSpaceOnUse" x1="511.6986" y1="728.95" x2="556.5183" y2="728.95" gradientTransform="matrix(1 0 0 -1 0 1024)">
	<stop  offset="0" style="stop-color:#7d7d7d"/>
	<stop  offset="1" style="stop-color:#7d7d7d"/>
</linearGradient>
<polygon class="st0" points="556.5,301 549.6,289.1 549.6,289.1 "/>
<linearGradient id="SVGID_00000087410326274545041620000016635760605556011426_" gradientUnits="userSpaceOnUse" x1="512.9186" y1="855.8299" x2="510.285" y2="113.1633" gradientTransform="matrix(1 0 0 -1 0 1024)">
	<stop  offset="0" style="stop-color:#7d7d7d"/>
	<stop  offset="1" style="stop-color:#7d7d7d"/>
</linearGradient>
<path style="fill:url(#SVGID_00000087410326274545041620000016635760605556011426_);" d="M924.7,511.8c0,227.7-185.3,413-413,413
	s-413-185.3-413-413s185.3-413,413-413c11.3,0,20.5,9.2,20.5,20.5s-9.2,20.5-20.5,20.5c-205.2,0-372.1,166.9-372.1,372.1
	S306.5,884,511.7,884s372.1-167,372.1-372.2c0-76.8-23.2-150.4-67-213.1c-6.5-9.3-4.2-22,5-28.5c9.3-6.5,22-4.2,28.5,5
	C899,344.8,924.7,426.6,924.7,511.8z M263.7,652.9c-6.1,10.6-6.1,23.6,0,34.1s17.4,17.1,29.6,17.1h179.5
	c60.4-29.2,52.6-68.3,52.6-68.3h-173l0,0h-78.8L263.7,652.9z M545.8,522.4c0-18.9-15.3-34.1-34.1-34.1s-34.1,15.3-34.1,34.1
	c0,18.8,15.3,34.1,34.1,34.1S545.8,541.3,545.8,522.4z M700.6,687.1c6.3,11,17.8,17.1,29.6,17.1c5.8,0,11.7-1.5,17-4.6
	c16.3-9.4,21.9-30.3,12.5-46.6L556.5,301c0,0-16.7,42.9-20.5,101.1L700.6,687.1z M482.1,274.6L281.3,622.5c0,0,55.9,5.3,93.9-26.1
	l136.5-236.5c0,0,32.1-60,37.9-70.8l-8.4-14.5c-6.1-10.6-17.4-17.1-29.6-17.1S488.2,264,482.1,274.6z"/>
<linearGradient id="SVGID_00000000904673724709818470000010074711831128502418_" gradientUnits="userSpaceOnUse" x1="610.1436" y1="846.5" x2="778.6564" y2="846.5" gradientTransform="matrix(1 0 0 -1 0 1024)">
	<stop  offset="0" style="stop-color:#7d7d7d"/>
	<stop  offset="1" style="stop-color:#7d7d7d"/>
</linearGradient>
<path style="fill:url(#SVGID_00000000904673724709818470000010074711831128502418_);" d="M682.9,169.9L682.9,169.9
	c-7.5,11.4-22.8,14.6-34.2,7.1s-14.5-22.8-7.1-34.2c7.5-11.4,22.8-14.5,34.2-7.1c6.3,4.2,14.9,2.4,19-3.9c4.2-6.3,2.4-14.9-3.9-19
	c-24-15.8-56.4-9.1-72.2,15s-9.1,56.4,15,72.2c24,15.8,56.4,9.1,72.2-14.9l0,0c7.5-11.4,22.8-14.5,34.2-7.1
	c11.4,7.5,14.5,22.8,7.1,34.2s-22.8,14.5-34.2,7.1c-6.3-4.2-14.9-2.4-19,3.9c-4.2,6.3-2.4,14.9,3.9,19c24,15.8,56.4,9.1,72.2-15
	c15.8-24,9.1-56.4-15-72.2C731.1,139.2,698.7,145.9,682.9,169.9z"/>
</svg>
